<?xml version="1.0" encoding="utf-8" standalone="no"?>
<!DOCTYPE svg PUBLIC "-//W3C//DTD SVG 1.1//EN"
  "http://www.w3.org/Graphics/SVG/1.1/DTD/svg11.dtd">
<svg xmlns:xlink="http://www.w3.org/1999/xlink" width="684pt" height="403.2pt" viewBox="0 0 684 403.2" xmlns="http://www.w3.org/2000/svg" version="1.1">
 <metadata>
  <rdf:RDF xmlns:dc="http://purl.org/dc/elements/1.1/" xmlns:cc="http://creativecommons.org/ns#" xmlns:rdf="http://www.w3.org/1999/02/22-rdf-syntax-ns#">
   <cc:Work>
    <dc:type rdf:resource="http://purl.org/dc/dcmitype/StillImage"/>
    <dc:date>2026-06-21T23:49:21.101984</dc:date>
    <dc:format>image/svg+xml</dc:format>
    <dc:creator>
     <cc:Agent>
      <dc:title>Matplotlib v3.10.3, https://matplotlib.org/</dc:title>
     </cc:Agent>
    </dc:creator>
   </cc:Work>
  </rdf:RDF>
 </metadata>
 <defs>
  <style type="text/css">*{stroke-linejoin: round; stroke-linecap: butt}</style>
 </defs>
 <g id="figure_1">
  <g id="patch_1">
   <path d="M 0 403.2 
L 684 403.2 
L 684 0 
L 0 0 
z
" style="fill: #ffffff"/>
  </g>
  <g id="axes_1">
   <g id="patch_2">
    <path d="M 48.53 357.28 
L 672.12 357.28 
L 672.12 29.4 
L 48.53 29.4 
z
" style="fill: #ffffff"/>
   </g>
   <g id="matplotlib.axis_1">
    <g id="xtick_1">
     <g id="line2d_1">
      <defs>
       <path id="ma2c93f4dde" d="M 0 0 
L 0 3.5 
" style="stroke: #000000; stroke-width: 0.8"/>
      </defs>
      <g>
       <use xlink:href="#ma2c93f4dde" x="74.123058" y="357.28" style="stroke: #000000; stroke-width: 0.8"/>
      </g>
     </g>
     <g id="text_1">
      <text style="font-size: 10px; font-family: 'DejaVu Sans', 'Bitstream Vera Sans', 'Computer Modern Sans Serif', 'Lucida Grande', 'Verdana', 'Geneva', 'Lucid', 'Arial', 'Helvetica', 'Avant Garde', sans-serif; text-anchor: middle" x="74.123058" y="371.878437" transform="rotate(-0 74.123058 371.878437)">0</text>
     </g>
    </g>
    <g id="xtick_2">
     <g id="line2d_2">
      <g>
       <use xlink:href="#ma2c93f4dde" x="211.720146" y="357.28" style="stroke: #000000; stroke-width: 0.8"/>
      </g>
     </g>
     <g id="text_2">
      <text style="font-size: 10px; font-family: 'DejaVu Sans', 'Bitstream Vera Sans', 'Computer Modern Sans Serif', 'Lucida Grande', 'Verdana', 'Geneva', 'Lucid', 'Arial', 'Helvetica', 'Avant Garde', sans-serif; text-anchor: middle" x="211.720146" y="371.878437" transform="rotate(-0 211.720146 371.878437)">100</text>
     </g>
    </g>
    <g id="xtick_3">
     <g id="line2d_3">
      <g>
       <use xlink:href="#ma2c93f4dde" x="349.317233" y="357.28" style="stroke: #000000; stroke-width: 0.8"/>
      </g>
     </g>
     <g id="text_3">
      <text style="font-size: 10px; font-family: 'DejaVu Sans', 'Bitstream Vera Sans', 'Computer Modern Sans Serif', 'Lucida Grande', 'Verdana', 'Geneva', 'Lucid', 'Arial', 'Helvetica', 'Avant Garde', sans-serif; text-anchor: middle" x="349.317233" y="371.878437" transform="rotate(-0 349.317233 371.878437)">200</text>
     </g>
    </g>
    <g id="xtick_4">
     <g id="line2d_4">
      <g>
       <use xlink:href="#ma2c93f4dde" x="486.91432" y="357.28" style="stroke: #000000; stroke-width: 0.8"/>
      </g>
     </g>
     <g id="text_4">
      <text style="font-size: 10px; font-family: 'DejaVu Sans', 'Bitstream Vera Sans', 'Computer Modern Sans Serif', 'Lucida Grande', 'Verdana', 'Geneva', 'Lucid', 'Arial', 'Helvetica', 'Avant Garde', sans-serif; text-anchor: middle" x="486.91432" y="371.878437" transform="rotate(-0 486.91432 371.878437)">300</text>
     </g>
    </g>
    <g id="xtick_5">
     <g id="line2d_5">
      <g>
       <use xlink:href="#ma2c93f4dde" x="624.511408" y="357.28" style="stroke: #000000; stroke-width: 0.8"/>
      </g>
     </g>
     <g id="text_5">
      <text style="font-size: 10px; font-family: 'DejaVu Sans', 'Bitstream Vera Sans', 'Computer Modern Sans Serif', 'Lucida Grande', 'Verdana', 'Geneva', 'Lucid', 'Arial', 'Helvetica', 'Avant Garde', sans-serif; text-anchor: middle" x="624.511408" y="371.878437" transform="rotate(-0 624.511408 371.878437)">400</text>
     </g>
    </g>
    <g id="text_6">
     <text style="font-size: 12px; font-family: 'DejaVu Sans', 'Bitstream Vera Sans', 'Computer Modern Sans Serif', 'Lucida Grande', 'Verdana', 'Geneva', 'Lucid', 'Arial', 'Helvetica', 'Avant Garde', sans-serif; text-anchor: middle" x="360.325" y="387.07625" transform="rotate(-0 360.325 387.07625)">Decoded Payload Length (bytes)</text>
    </g>
   </g>
   <g id="matplotlib.axis_2">
    <g id="ytick_1">
     <g id="line2d_6">
      <path d="M 48.53 357.28 
L 672.12 357.28 
" clip-path="url(#p1720e80772)" style="fill: none; stroke: #d1d1d1; stroke-width: 0.8; stroke-linecap: square"/>
     </g>
     <g id="line2d_7">
      <defs>
       <path id="mc74e827eaa" d="M 0 0 
L -3.5 0 
" style="stroke: #000000; stroke-width: 0.8"/>
      </defs>
      <g>
       <use xlink:href="#mc74e827eaa" x="48.53" y="357.28" style="stroke: #000000; stroke-width: 0.8"/>
      </g>
     </g>
     <g id="text_7">
      <text style="font-size: 10px; font-family: 'DejaVu Sans', 'Bitstream Vera Sans', 'Computer Modern Sans Serif', 'Lucida Grande', 'Verdana', 'Geneva', 'Lucid', 'Arial', 'Helvetica', 'Avant Garde', sans-serif; text-anchor: end" x="41.53" y="361.079219" transform="rotate(-0 41.53 361.079219)">0</text>
     </g>
    </g>
    <g id="ytick_2">
     <g id="line2d_8">
      <path d="M 48.53 301.958016 
L 672.12 301.958016 
" clip-path="url(#p1720e80772)" style="fill: none; stroke: #d1d1d1; stroke-width: 0.8; stroke-linecap: square"/>
     </g>
     <g id="line2d_9">
      <g>
       <use xlink:href="#mc74e827eaa" x="48.53" y="301.958016" style="stroke: #000000; stroke-width: 0.8"/>
      </g>
     </g>
     <g id="text_8">
      <text style="font-size: 10px; font-family: 'DejaVu Sans', 'Bitstream Vera Sans', 'Computer Modern Sans Serif', 'Lucida Grande', 'Verdana', 'Geneva', 'Lucid', 'Arial', 'Helvetica', 'Avant Garde', sans-serif; text-anchor: end" x="41.53" y="305.757235" transform="rotate(-0 41.53 305.757235)">5</text>
     </g>
    </g>
    <g id="ytick_3">
     <g id="line2d_10">
      <path d="M 48.53 246.636032 
L 672.12 246.636032 
" clip-path="url(#p1720e80772)" style="fill: none; stroke: #d1d1d1; stroke-width: 0.8; stroke-linecap: square"/>
     </g>
     <g id="line2d_11">
      <g>
       <use xlink:href="#mc74e827eaa" x="48.53" y="246.636032" style="stroke: #000000; stroke-width: 0.8"/>
      </g>
     </g>
     <g id="text_9">
      <text style="font-size: 10px; font-family: 'DejaVu Sans', 'Bitstream Vera Sans', 'Computer Modern Sans Serif', 'Lucida Grande', 'Verdana', 'Geneva', 'Lucid', 'Arial', 'Helvetica', 'Avant Garde', sans-serif; text-anchor: end" x="41.53" y="250.435251" transform="rotate(-0 41.53 250.435251)">10</text>
     </g>
    </g>
    <g id="ytick_4">
     <g id="line2d_12">
      <path d="M 48.53 191.314048 
L 672.12 191.314048 
" clip-path="url(#p1720e80772)" style="fill: none; stroke: #d1d1d1; stroke-width: 0.8; stroke-linecap: square"/>
     </g>
     <g id="line2d_13">
      <g>
       <use xlink:href="#mc74e827eaa" x="48.53" y="191.314048" style="stroke: #000000; stroke-width: 0.8"/>
      </g>
     </g>
     <g id="text_10">
      <text style="font-size: 10px; font-family: 'DejaVu Sans', 'Bitstream Vera Sans', 'Computer Modern Sans Serif', 'Lucida Grande', 'Verdana', 'Geneva', 'Lucid', 'Arial', 'Helvetica', 'Avant Garde', sans-serif; text-anchor: end" x="41.53" y="195.113267" transform="rotate(-0 41.53 195.113267)">15</text>
     </g>
    </g>
    <g id="ytick_5">
     <g id="line2d_14">
      <path d="M 48.53 135.992065 
L 672.12 135.992065 
" clip-path="url(#p1720e80772)" style="fill: none; stroke: #d1d1d1; stroke-width: 0.8; stroke-linecap: square"/>
     </g>
     <g id="line2d_15">
      <g>
       <use xlink:href="#mc74e827eaa" x="48.53" y="135.992065" style="stroke: #000000; stroke-width: 0.8"/>
      </g>
     </g>
     <g id="text_11">
      <text style="font-size: 10px; font-family: 'DejaVu Sans', 'Bitstream Vera Sans', 'Computer Modern Sans Serif', 'Lucida Grande', 'Verdana', 'Geneva', 'Lucid', 'Arial', 'Helvetica', 'Avant Garde', sans-serif; text-anchor: end" x="41.53" y="139.791283" transform="rotate(-0 41.53 139.791283)">20</text>
     </g>
    </g>
    <g id="ytick_6">
     <g id="line2d_16">
      <path d="M 48.53 80.670081 
L 672.12 80.670081 
" clip-path="url(#p1720e80772)" style="fill: none; stroke: #d1d1d1; stroke-width: 0.8; stroke-linecap: square"/>
     </g>
     <g id="line2d_17">
      <g>
       <use xlink:href="#mc74e827eaa" x="48.53" y="80.670081" style="stroke: #000000; stroke-width: 0.8"/>
      </g>
     </g>
     <g id="text_12">
      <text style="font-size: 10px; font-family: 'DejaVu Sans', 'Bitstream Vera Sans', 'Computer Modern Sans Serif', 'Lucida Grande', 'Verdana', 'Geneva', 'Lucid', 'Arial', 'Helvetica', 'Avant Garde', sans-serif; text-anchor: end" x="41.53" y="84.469299" transform="rotate(-0 41.53 84.469299)">25</text>
     </g>
    </g>
    <g id="text_13">
     <text style="font-size: 12px; font-family: 'DejaVu Sans', 'Bitstream Vera Sans', 'Computer Modern Sans Serif', 'Lucida Grande', 'Verdana', 'Geneva', 'Lucid', 'Arial', 'Helvetica', 'Avant Garde', sans-serif; text-anchor: middle" x="22.309375" y="193.34" transform="rotate(-90 22.309375 193.34)">Frequency (%)</text>
    </g>
   </g>
   <g id="patch_3">
    <path d="M 48.53 357.28 
L 48.53 29.4 
" style="fill: none; stroke: #000000; stroke-width: 0.9; stroke-linejoin: miter; stroke-linecap: square"/>
   </g>
   <g id="patch_4">
    <path d="M 672.12 357.28 
L 672.12 29.4 
" style="fill: none; stroke: #000000; stroke-width: 0.9; stroke-linejoin: miter; stroke-linecap: square"/>
   </g>
   <g id="patch_5">
    <path d="M 48.53 357.28 
L 672.12 357.28 
" style="fill: none; stroke: #000000; stroke-width: 0.9; stroke-linejoin: miter; stroke-linecap: square"/>
   </g>
   <g id="patch_6">
    <path d="M 48.53 29.4 
L 672.12 29.4 
" style="fill: none; stroke: #000000; stroke-width: 0.9; stroke-linejoin: miter; stroke-linecap: square"/>
   </g>
   <g id="patch_7">
    <path d="M 76.875 357.28 
L 91.0475 357.28 
L 91.0475 338.911373 
L 76.875 338.911373 
z
" clip-path="url(#p1720e80772)" style="fill: url(#h4745b3350b); stroke: #000000; stroke-width: 0.8; stroke-linejoin: miter"/>
   </g>
   <g id="patch_8">
    <path d="M 91.0475 357.28 
L 105.22 357.28 
L 105.22 132.534441 
L 91.0475 132.534441 
z
" clip-path="url(#p1720e80772)" style="fill: url(#h4745b3350b); stroke: #000000; stroke-width: 0.8; stroke-linejoin: miter"/>
   </g>
   <g id="patch_9">
    <path d="M 105.22 357.28 
L 119.3925 357.28 
L 119.3925 45.013333 
L 105.22 45.013333 
z
" clip-path="url(#p1720e80772)" style="fill: url(#h4745b3350b); stroke: #000000; stroke-width: 0.8; stroke-linejoin: miter"/>
   </g>
   <g id="patch_10">
    <path d="M 119.3925 357.28 
L 133.565 357.28 
L 133.565 154.144591 
L 119.3925 154.144591 
z
" clip-path="url(#p1720e80772)" style="fill: url(#h4745b3350b); stroke: #000000; stroke-width: 0.8; stroke-linejoin: miter"/>
   </g>
   <g id="patch_11">
    <path d="M 133.565 357.28 
L 147.7375 357.28 
L 147.7375 224.377578 
L 133.565 224.377578 
z
" clip-path="url(#p1720e80772)" style="fill: url(#h4745b3350b); stroke: #000000; stroke-width: 0.8; stroke-linejoin: miter"/>
   </g>
   <g id="patch_12">
    <path d="M 147.7375 357.28 
L 161.91 357.28 
L 161.91 307.576655 
L 147.7375 307.576655 
z
" clip-path="url(#p1720e80772)" style="fill: url(#h4745b3350b); stroke: #000000; stroke-width: 0.8; stroke-linejoin: miter"/>
   </g>
   <g id="patch_13">
    <path d="M 161.91 357.28 
L 176.0825 357.28 
L 176.0825 311.898685 
L 161.91 311.898685 
z
" clip-path="url(#p1720e80772)" style="fill: url(#h4745b3350b); stroke: #000000; stroke-width: 0.8; stroke-linejoin: miter"/>
   </g>
   <g id="patch_14">
    <path d="M 176.0825 357.28 
L 190.255 357.28 
L 190.255 324.864775 
L 176.0825 324.864775 
z
" clip-path="url(#p1720e80772)" style="fill: url(#h4745b3350b); stroke: #000000; stroke-width: 0.8; stroke-linejoin: miter"/>
   </g>
   <g id="patch_15">
    <path d="M 190.255 357.28 
L 204.4275 357.28 
L 204.4275 338.911373 
L 190.255 338.911373 
z
" clip-path="url(#p1720e80772)" style="fill: url(#h4745b3350b); stroke: #000000; stroke-width: 0.8; stroke-linejoin: miter"/>
   </g>
   <g id="patch_16">
    <path d="M 204.4275 357.28 
L 218.6 357.28 
L 218.6 341.072388 
L 204.4275 341.072388 
z
" clip-path="url(#p1720e80772)" style="fill: url(#h4745b3350b); stroke: #000000; stroke-width: 0.8; stroke-linejoin: miter"/>
   </g>
   <g id="patch_17">
    <path d="M 218.6 357.28 
L 232.7725 357.28 
L 232.7725 350.796955 
L 218.6 350.796955 
z
" clip-path="url(#p1720e80772)" style="fill: url(#h4745b3350b); stroke: #000000; stroke-width: 0.8; stroke-linejoin: miter"/>
   </g>
   <g id="patch_18">
    <path d="M 232.7725 357.28 
L 246.945 357.28 
L 246.945 352.95797 
L 232.7725 352.95797 
z
" clip-path="url(#p1720e80772)" style="fill: url(#h4745b3350b); stroke: #000000; stroke-width: 0.8; stroke-linejoin: miter"/>
   </g>
   <g id="patch_19">
    <path d="M 246.945 357.28 
L 261.1175 357.28 
L 261.1175 352.95797 
L 246.945 352.95797 
z
" clip-path="url(#p1720e80772)" style="fill: url(#h4745b3350b); stroke: #000000; stroke-width: 0.8; stroke-linejoin: miter"/>
   </g>
   <g id="patch_20">
    <path d="M 261.1175 357.28 
L 275.29 357.28 
L 275.29 354.038478 
L 261.1175 354.038478 
z
" clip-path="url(#p1720e80772)" style="fill: url(#h4745b3350b); stroke: #000000; stroke-width: 0.8; stroke-linejoin: miter"/>
   </g>
   <g id="patch_21">
    <path d="M 275.29 357.28 
L 289.4625 357.28 
L 289.4625 352.95797 
L 275.29 352.95797 
z
" clip-path="url(#p1720e80772)" style="fill: url(#h4745b3350b); stroke: #000000; stroke-width: 0.8; stroke-linejoin: miter"/>
   </g>
   <g id="patch_22">
    <path d="M 289.4625 357.28 
L 303.635 357.28 
L 303.635 354.038478 
L 289.4625 354.038478 
z
" clip-path="url(#p1720e80772)" style="fill: url(#h4745b3350b); stroke: #000000; stroke-width: 0.8; stroke-linejoin: miter"/>
   </g>
   <g id="patch_23">
    <path d="M 303.635 357.28 
L 317.8075 357.28 
L 317.8075 355.118985 
L 303.635 355.118985 
z
" clip-path="url(#p1720e80772)" style="fill: url(#h4745b3350b); stroke: #000000; stroke-width: 0.8; stroke-linejoin: miter"/>
   </g>
   <g id="patch_24">
    <path d="M 317.8075 357.28 
L 331.98 357.28 
L 331.98 357.28 
L 317.8075 357.28 
z
" clip-path="url(#p1720e80772)" style="fill: url(#h4745b3350b); stroke: #000000; stroke-width: 0.8; stroke-linejoin: miter"/>
   </g>
   <g id="patch_25">
    <path d="M 331.98 357.28 
L 346.1525 357.28 
L 346.1525 354.038478 
L 331.98 354.038478 
z
" clip-path="url(#p1720e80772)" style="fill: url(#h4745b3350b); stroke: #000000; stroke-width: 0.8; stroke-linejoin: miter"/>
   </g>
   <g id="patch_26">
    <path d="M 346.1525 357.28 
L 360.325 357.28 
L 360.325 355.118985 
L 346.1525 355.118985 
z
" clip-path="url(#p1720e80772)" style="fill: url(#h4745b3350b); stroke: #000000; stroke-width: 0.8; stroke-linejoin: miter"/>
   </g>
   <g id="patch_27">
    <path d="M 360.325 357.28 
L 374.4975 357.28 
L 374.4975 356.199493 
L 360.325 356.199493 
z
" clip-path="url(#p1720e80772)" style="fill: url(#h4745b3350b); stroke: #000000; stroke-width: 0.8; stroke-linejoin: miter"/>
   </g>
   <g id="patch_28">
    <path d="M 374.4975 357.28 
L 388.67 357.28 
L 388.67 351.877463 
L 374.4975 351.877463 
z
" clip-path="url(#p1720e80772)" style="fill: url(#h4745b3350b); stroke: #000000; stroke-width: 0.8; stroke-linejoin: miter"/>
   </g>
   <g id="patch_29">
    <path d="M 388.67 357.28 
L 402.8425 357.28 
L 402.8425 349.716448 
L 388.67 349.716448 
z
" clip-path="url(#p1720e80772)" style="fill: url(#h4745b3350b); stroke: #000000; stroke-width: 0.8; stroke-linejoin: miter"/>
   </g>
   <g id="patch_30">
    <path d="M 402.8425 357.28 
L 417.015 357.28 
L 417.015 354.038478 
L 402.8425 354.038478 
z
" clip-path="url(#p1720e80772)" style="fill: url(#h4745b3350b); stroke: #000000; stroke-width: 0.8; stroke-linejoin: miter"/>
   </g>
   <g id="patch_31">
    <path d="M 417.015 357.28 
L 431.1875 357.28 
L 431.1875 357.28 
L 417.015 357.28 
z
" clip-path="url(#p1720e80772)" style="fill: url(#h4745b3350b); stroke: #000000; stroke-width: 0.8; stroke-linejoin: miter"/>
   </g>
   <g id="patch_32">
    <path d="M 431.1875 357.28 
L 445.36 357.28 
L 445.36 357.28 
L 431.1875 357.28 
z
" clip-path="url(#p1720e80772)" style="fill: url(#h4745b3350b); stroke: #000000; stroke-width: 0.8; stroke-linejoin: miter"/>
   </g>
   <g id="patch_33">
    <path d="M 445.36 357.28 
L 459.5325 357.28 
L 459.5325 356.199493 
L 445.36 356.199493 
z
" clip-path="url(#p1720e80772)" style="fill: url(#h4745b3350b); stroke: #000000; stroke-width: 0.8; stroke-linejoin: miter"/>
   </g>
   <g id="patch_34">
    <path d="M 459.5325 357.28 
L 473.705 357.28 
L 473.705 357.28 
L 459.5325 357.28 
z
" clip-path="url(#p1720e80772)" style="fill: url(#h4745b3350b); stroke: #000000; stroke-width: 0.8; stroke-linejoin: miter"/>
   </g>
   <g id="patch_35">
    <path d="M 473.705 357.28 
L 487.8775 357.28 
L 487.8775 357.28 
L 473.705 357.28 
z
" clip-path="url(#p1720e80772)" style="fill: url(#h4745b3350b); stroke: #000000; stroke-width: 0.8; stroke-linejoin: miter"/>
   </g>
   <g id="patch_36">
    <path d="M 487.8775 357.28 
L 502.05 357.28 
L 502.05 357.28 
L 487.8775 357.28 
z
" clip-path="url(#p1720e80772)" style="fill: url(#h4745b3350b); stroke: #000000; stroke-width: 0.8; stroke-linejoin: miter"/>
   </g>
   <g id="patch_37">
    <path d="M 502.05 357.28 
L 516.2225 357.28 
L 516.2225 357.28 
L 502.05 357.28 
z
" clip-path="url(#p1720e80772)" style="fill: url(#h4745b3350b); stroke: #000000; stroke-width: 0.8; stroke-linejoin: miter"/>
   </g>
   <g id="patch_38">
    <path d="M 516.2225 357.28 
L 530.395 357.28 
L 530.395 357.28 
L 516.2225 357.28 
z
" clip-path="url(#p1720e80772)" style="fill: url(#h4745b3350b); stroke: #000000; stroke-width: 0.8; stroke-linejoin: miter"/>
   </g>
   <g id="patch_39">
    <path d="M 530.395 357.28 
L 544.5675 357.28 
L 544.5675 357.28 
L 530.395 357.28 
z
" clip-path="url(#p1720e80772)" style="fill: url(#h4745b3350b); stroke: #000000; stroke-width: 0.8; stroke-linejoin: miter"/>
   </g>
   <g id="patch_40">
    <path d="M 544.5675 357.28 
L 558.74 357.28 
L 558.74 357.28 
L 544.5675 357.28 
z
" clip-path="url(#p1720e80772)" style="fill: url(#h4745b3350b); stroke: #000000; stroke-width: 0.8; stroke-linejoin: miter"/>
   </g>
   <g id="patch_41">
    <path d="M 558.74 357.28 
L 572.9125 357.28 
L 572.9125 357.28 
L 558.74 357.28 
z
" clip-path="url(#p1720e80772)" style="fill: url(#h4745b3350b); stroke: #000000; stroke-width: 0.8; stroke-linejoin: miter"/>
   </g>
   <g id="patch_42">
    <path d="M 572.9125 357.28 
L 587.085 357.28 
L 587.085 357.28 
L 572.9125 357.28 
z
" clip-path="url(#p1720e80772)" style="fill: url(#h4745b3350b); stroke: #000000; stroke-width: 0.8; stroke-linejoin: miter"/>
   </g>
   <g id="patch_43">
    <path d="M 587.085 357.28 
L 601.2575 357.28 
L 601.2575 357.28 
L 587.085 357.28 
z
" clip-path="url(#p1720e80772)" style="fill: url(#h4745b3350b); stroke: #000000; stroke-width: 0.8; stroke-linejoin: miter"/>
   </g>
   <g id="patch_44">
    <path d="M 601.2575 357.28 
L 615.43 357.28 
L 615.43 357.28 
L 601.2575 357.28 
z
" clip-path="url(#p1720e80772)" style="fill: url(#h4745b3350b); stroke: #000000; stroke-width: 0.8; stroke-linejoin: miter"/>
   </g>
   <g id="patch_45">
    <path d="M 615.43 357.28 
L 629.6025 357.28 
L 629.6025 357.28 
L 615.43 357.28 
z
" clip-path="url(#p1720e80772)" style="fill: url(#h4745b3350b); stroke: #000000; stroke-width: 0.8; stroke-linejoin: miter"/>
   </g>
   <g id="patch_46">
    <path d="M 629.6025 357.28 
L 643.775 357.28 
L 643.775 356.199493 
L 629.6025 356.199493 
z
" clip-path="url(#p1720e80772)" style="fill: url(#h4745b3350b); stroke: #000000; stroke-width: 0.8; stroke-linejoin: miter"/>
   </g>
   <g id="text_14">
    <text style="font-size: 16px; font-family: 'DejaVu Sans', 'Bitstream Vera Sans', 'Computer Modern Sans Serif', 'Lucida Grande', 'Verdana', 'Geneva', 'Lucid', 'Arial', 'Helvetica', 'Avant Garde', sans-serif; text-anchor: middle" x="360.325" y="23.4" transform="rotate(-0 360.325 23.4)">Encoded Payload Length Distribution</text>
   </g>
  </g>
 </g>
 <defs>
  <clipPath id="p1720e80772">
   <rect x="48.53" y="29.4" width="623.59" height="327.88"/>
  </clipPath>
 </defs>
 <defs>
  <pattern id="h4745b3350b" patternUnits="userSpaceOnUse" x="0" y="0" width="72" height="72">
   <rect x="0" y="0" width="73" height="73" fill="#ffffff"/>
   <path d="M -36 36 
L 36 -36 
M -32 40 
L 40 -32 
M -28 44 
L 44 -28 
M -24 48 
L 48 -24 
M -20 52 
L 52 -20 
M -16 56 
L 56 -16 
M -12 60 
L 60 -12 
M -8 64 
L 64 -8 
M -4 68 
L 68 -4 
M 0 72 
L 72 0 
M 4 76 
L 76 4 
M 8 80 
L 80 8 
M 12 84 
L 84 12 
M 16 88 
L 88 16 
M 20 92 
L 92 20 
M 24 96 
L 96 24 
M 28 100 
L 100 28 
M 32 104 
L 104 32 
M 36 108 
L 108 36 
" style="fill: #000000; stroke: #000000; stroke-width: 0.8; stroke-linecap: butt; stroke-linejoin: miter"/>
  </pattern>
 </defs>
</svg>
